<?xml version="1.0"?>
<svg xmlns="http://www.w3.org/2000/svg" xmlns:xlink="http://www.w3.org/1999/xlink" version="1.1" id="Layer_1" x="0px" y="0px" viewBox="0 0 512.001 512.001" style="enable-background:new 0 0 512.001 512.001;" xml:space="preserve" width="512px" height="512px" class=""><g><path style="fill:#B3B3B3;" d="M456.25,219.797l47.855,82.889c12.007,20.797-3.002,46.793-27.016,46.793H435.41  c-24.014,0-39.023-25.996-27.016-46.793L456.25,219.797z" data-original="#B3B3B3" class=""/><g>
	<path style="fill:#E0B394;" d="M145.966,240.261c-14.208-0.63-25.518-12.352-25.518-26.709c0-14.758,11.962-26.732,26.732-26.732   c1.329,0,2.635,0.092,3.919,0.286L145.966,240.261z" data-original="#E0B394"/>
	<path style="fill:#E0B394;" d="M387.529,240.261c14.208-0.63,25.529-12.352,25.529-26.709c0-14.758-11.974-26.732-26.744-26.732   c-1.329,0-2.647,0.103-3.919,0.286L387.529,240.261z" data-original="#E0B394"/>
</g><path style="fill:#FF6D00" d="M391.657,407.982V512h-249.79V407.982c0-34.535,24.693-63.307,57.406-69.586  c4.354-0.848,8.846-1.283,13.452-1.283h108.063c4.606,0,9.109,0.435,13.463,1.283C366.953,344.687,391.657,373.447,391.657,407.982z  " data-original="#EA8249" class="" data-old_color="#FF6600"/><g>
	<rect x="258.166" y="383.874" style="fill:#FF4700" width="17.187" height="128.126" data-original="#D36F3D" class="" data-old_color="#FF4F00"/>
	<path style="fill:#FF4700" d="M334.251,338.396l-16.5,91.322l-50.989-36.219l-51.001,36.219l-16.488-91.322   c4.354-0.848,8.846-1.283,13.452-1.283h108.063C325.394,337.113,329.897,337.548,334.251,338.396z" data-original="#D36F3D" class="" data-old_color="#FF4F00"/>
	<path style="fill:#FF4700" d="M256.389,337.117h-43.663c-39.137,0-70.865,31.727-70.865,70.865v104.019h43.663V407.982   C185.524,368.844,217.251,337.117,256.389,337.117z" data-original="#D36F3D" class="" data-old_color="#FF4F00"/>
</g><path style="fill:#E0B394;" d="M317.324,234.632v105.356c0,27.923-22.639,50.562-50.562,50.562  c-27.931,0-50.562-22.639-50.562-50.562V220.883" data-original="#E0B394"/><path style="fill:#F7CBA4;" d="M228.081,355.812l-47.035-34.173c-24.855-18.058-38.301-47.921-35.346-78.502l8.158-84.422  c5.619-58.145,54.48-102.512,112.896-102.512l0,0c58.415,0,107.277,44.367,112.896,102.512l8.158,84.422  c2.955,30.581-10.49,60.442-35.346,78.502l-47.035,34.173C282.366,372.566,251.141,372.566,228.081,355.812z" data-original="#F7CBA4" class=""/><path style="fill:#E8BA97;" d="M174.97,259.774c-0.791,13.372,3.564,26.526,12.18,36.781l49.159,60.408  c2.567,3.059,5.477,5.626,8.628,7.677c-5.912-2.062-11.596-5.019-16.855-8.834l-47.036-34.168  c-24.853-18.058-38.293-47.918-35.337-78.5l8.147-84.424c5.569-57.578,53.533-101.646,111.202-102.482  c-35.521,0.859-75.742,34.34-77.839,69.998L174.97,259.774z" data-original="#E8BA97" class=""/><g>
	<path style="fill:#4D4D4D;" d="M387.807,243.132c1.031,10.61,0.08,21.129-2.635,31.109h-0.011l-30.17-30.181V143.254l25.048,19.453   L387.807,243.132z" data-original="#4D4D4D" class=""/>
	<path style="fill:#4D4D4D;" d="M179.485,149.366v94.694l-30.17,30.181l-0.905,0.252c-2.761-10.049-3.735-20.659-2.704-31.361   l7.769-80.425L179.485,149.366z" data-original="#4D4D4D" class=""/>
</g><g>
	<rect x="312.593" y="453.173" style="fill:#FF4700" width="53.854" height="17.187" data-original="#D36F3D" class="" data-old_color="#FF4F00"/>
	<rect x="167.073" y="453.173" style="fill:#FF4700" width="53.854" height="17.187" data-original="#D36F3D" class="" data-old_color="#FF4F00"/>
</g><path style="fill:#808080;" d="M456.25,428.183c-3.796,0-6.875-3.079-6.875-6.875V311.666c0-3.796,3.079-6.875,6.875-6.875  c3.796,0,6.875,3.079,6.875,6.875v109.642C463.125,425.104,460.048,428.183,456.25,428.183z" data-original="#808080" class=""/><polygon style="fill:#B3B3B3;" points="127.063,350.095 3.669,350.095 7.611,321.977 14.36,273.852 65.796,260.893 116.373,273.852   123.122,321.977 " data-original="#B3B3B3" class=""/><polygon style="fill:#E6E6E6;" points="127.063,350.095 3.669,350.095 7.611,321.977 123.122,321.977 " data-original="#E6E6E6" class=""/><path style="fill:#FF6D00" d="M385.778,128.335h-6.156c0-31.166-12.627-59.377-33.057-79.807  c-15.148-15.148-34.581-26.01-56.317-30.605h-0.003V5.697c0-3.145-2.549-5.696-5.696-5.696h-35.588  c-3.145,0-5.696,2.549-5.696,5.696v12.226c-51.056,10.806-89.371,56.134-89.371,110.41h-6.165c-2.274,0-4.233,1.605-4.68,3.835  l-4.976,24.829c-0.592,2.954,1.667,5.711,4.68,5.711h67.806c4.067,0,7.609,2.774,8.586,6.721l3.758,15.203  c0.976,3.949,4.519,6.721,8.586,6.721h70.53c4.067,0,7.609-2.774,8.586-6.721l3.758-15.203c0.976-3.949,4.519-6.721,8.586-6.721  h67.806c3.012,0,5.272-2.757,4.68-5.711l-4.977-24.829C390.01,129.939,388.052,128.335,385.778,128.335z" data-original="#EA8249" class="" data-old_color="#FF6600"/><g>
	<path style="fill:#FF4700" d="M259.303,0v17.921c-51.046,10.805-71.03,56.134-71.03,110.412H178.19l-6.886,34.375h-28.548   c-3.014,0-5.273-2.758-4.68-5.712l4.982-24.829c0.447-2.23,2.406-3.834,4.68-3.834h6.161c0-54.278,38.316-99.606,89.374-110.412   V5.696c0-3.145,2.549-5.696,5.696-5.696H259.303z" data-original="#D36F3D" class="" data-old_color="#FF4F00"/>
	<rect x="243.27" y="5.696" style="fill:#FF4700" width="16.03" height="122.638" data-original="#D36F3D" class="" data-old_color="#FF4F00"/>
</g><g>
	<path style="fill:#1A1A1A" d="M458.625,390.886h-4.747c-7.355,0-13.317,5.963-13.317,13.317v77.319   c0,7.355,5.963,13.317,13.317,13.317h4.747c7.355,0,13.317-5.962,13.317-13.317v-77.319   C471.941,396.848,465.979,390.886,458.625,390.886z" data-original="#5D9EBA" class="active-path" data-old_color="#1D1D1D"/>
	<path style="fill:#1A1A1A" d="M14.454,273.854H116.28l0,0c0-10.683-7.746-19.79-18.29-21.504l-0.54-0.088   c-9.016-1.467-15.641-9.254-15.641-18.389v-67.495c0-9.082-7.362-16.444-16.444-16.444l0,0c-9.082,0-16.444,7.362-16.444,16.444   v67.495c0,9.136-6.624,16.923-15.64,18.389l-0.54,0.088C22.2,254.065,14.454,263.172,14.454,273.854L14.454,273.854z" data-original="#5D9EBA" class="active-path" data-old_color="#1D1D1D"/>
</g><path style="fill:#F2F2F2;" d="M311.609,281.923c0,0-0.653,1.604-2.028,4.136c-0.332,0.653-0.722,1.341-1.157,2.085  c-0.516,0.733-1.111,1.478-1.753,2.315c-0.642,0.836-1.375,1.684-2.154,2.624c-0.275,0.355-0.573,0.653-0.894,0.963  c-0.115,0.115-0.241,0.229-0.367,0.344c-0.447,0.412-0.905,0.848-1.375,1.283c-0.94,0.882-1.959,1.753-3.025,2.67  c-1.123,0.825-2.326,1.604-3.564,2.452c-0.619,0.424-1.26,0.836-1.914,1.249c-0.653,0.39-1.352,0.71-2.063,1.066  c-1.398,0.71-2.853,1.398-4.354,2.085c-3.094,1.054-6.313,2.292-9.751,2.807c-3.392,0.791-6.932,0.917-10.461,1.089  c-3.529-0.172-7.07-0.286-10.461-1.077c-3.437-0.516-6.657-1.753-9.751-2.807c-1.501-0.676-2.956-1.364-4.366-2.074  c-0.699-0.355-1.398-0.676-2.062-1.066c-0.642-0.424-1.283-0.825-1.902-1.249c-1.237-0.848-2.452-1.639-3.575-2.452  c-1.066-0.917-2.074-1.799-3.025-2.67c-0.47-0.447-0.917-0.871-1.364-1.295c-0.16-0.149-0.321-0.298-0.481-0.447  c-0.275-0.275-0.539-0.539-0.768-0.848c-0.745-0.905-1.467-1.742-2.097-2.567c-0.619-0.836-1.226-1.57-1.73-2.303  c-0.458-0.779-0.882-1.49-1.237-2.143c-1.432-2.612-2.028-4.171-2.028-4.171s1.696,0.516,4.308,1.57  c0.665,0.252,1.352,0.561,2.12,0.871c0.814,0.241,1.65,0.55,2.544,0.848c0.905,0.298,1.81,0.665,2.773,1.008  c0.951,0.367,2.028,0.607,3.094,0.928c1.066,0.309,2.131,0.688,3.243,1.02c1.157,0.252,2.315,0.55,3.506,0.836  c0.596,0.137,1.18,0.309,1.776,0.47c0.607,0.137,1.237,0.218,1.856,0.344c1.249,0.218,2.498,0.47,3.747,0.756  c2.601,0.241,5.168,0.814,7.849,0.917c2.647,0.344,5.351,0.252,8.032,0.413c2.693-0.16,5.397-0.057,8.044-0.401  c2.681-0.092,5.248-0.676,7.849-0.917c1.249-0.275,2.498-0.527,3.747-0.745c0.619-0.126,1.249-0.206,1.856-0.344  c0.596-0.172,1.192-0.332,1.776-0.47c1.192-0.286,2.349-0.596,3.506-0.836c1.123-0.332,2.189-0.71,3.254-1.02  c1.054-0.321,2.154-0.573,3.071-0.928c0.94-0.321,1.822-0.676,2.716-0.951c0.882-0.298,1.707-0.596,2.521-0.836  c0.802-0.344,1.512-0.676,2.189-0.94C309.947,282.404,311.609,281.923,311.609,281.923z" data-original="#F2F2F2" class=""/><g>
	<path style="fill:#4D4D4D;" d="M303.623,294.046c-0.115,0.115-0.241,0.229-0.367,0.344c-0.447,0.412-0.905,0.848-1.375,1.283   c-0.94,0.882-1.959,1.753-3.025,2.67c-1.123,0.825-2.326,1.604-3.563,2.452c-0.619,0.424-1.26,0.836-1.914,1.249   c-0.653,0.39-1.352,0.71-2.063,1.066c-1.398,0.71-2.853,1.398-4.354,2.085c-3.094,1.054-6.313,2.292-9.751,2.807   c-3.392,0.791-6.932,0.917-10.461,1.089c-3.529-0.172-7.07-0.286-10.461-1.077c-3.437-0.516-6.657-1.753-9.751-2.807   c-1.501-0.676-2.956-1.364-4.366-2.074c-0.699-0.355-1.398-0.676-2.062-1.066c-0.642-0.424-1.283-0.825-1.902-1.249   c-1.237-0.848-2.452-1.639-3.575-2.452c-1.066-0.917-2.074-1.799-3.025-2.67c-0.47-0.447-0.917-0.871-1.364-1.295   c-0.16-0.149-0.321-0.298-0.481-0.447c0.367,0.126,0.733,0.252,1.111,0.378c0.905,0.298,1.81,0.653,2.773,0.997   c0.951,0.378,2.028,0.619,3.094,0.94c1.066,0.309,2.131,0.676,3.243,1.02c1.157,0.241,2.315,0.55,3.506,0.836   c0.596,0.137,1.18,0.298,1.776,0.458c0.607,0.137,1.238,0.218,1.856,0.344c1.249,0.218,2.498,0.481,3.747,0.756   c2.601,0.252,5.168,0.825,7.849,0.917c2.647,0.355,5.351,0.252,8.032,0.424c2.693-0.16,5.397-0.057,8.044-0.412   c2.681-0.092,5.248-0.665,7.849-0.905c1.249-0.275,2.498-0.539,3.747-0.756c0.619-0.126,1.249-0.206,1.856-0.344   c0.596-0.16,1.192-0.321,1.776-0.458c1.192-0.286,2.349-0.596,3.506-0.836c1.123-0.344,2.189-0.722,3.254-1.02   c1.054-0.321,2.154-0.584,3.071-0.928c0.94-0.332,1.822-0.676,2.716-0.962C302.923,294.287,303.278,294.161,303.623,294.046z" data-original="#4D4D4D" class=""/>
	<path style="fill:#4D4D4D;" d="M215.744,243.54c-4.746,0-8.594-3.848-8.594-8.594v-13.745c0-4.746,3.848-8.594,8.594-8.594   s8.594,3.848,8.594,8.594v13.745C224.338,239.693,220.491,243.54,215.744,243.54z" data-original="#4D4D4D" class=""/>
</g><g>
	<path style="fill:#666666" d="M298.114,205.733c0,0,0.023-0.228,0.1-0.62c0.088-0.379,0.178-0.979,0.37-1.657   c0.086-0.351,0.197-0.716,0.324-1.118c0.166-0.408,0.39-0.818,0.627-1.283c0.235-0.467,0.532-0.929,0.843-1.448   c0.314-0.527,0.689-0.927,1.073-1.436c0.39-0.489,0.828-0.962,1.287-1.471c0.485-0.459,1.011-0.912,1.57-1.367   c1.094-0.964,2.431-1.66,3.825-2.435c1.441-0.61,2.971-1.271,4.61-1.577c1.622-0.422,3.324-0.521,5.021-0.6   c1.697,0.078,3.4,0.168,5.023,0.588c1.64,0.303,3.171,0.967,4.613,1.572c1.394,0.773,2.733,1.469,3.828,2.434   c0.558,0.456,1.085,0.91,1.571,1.367c0.458,0.51,0.895,0.988,1.287,1.474c0.378,0.506,0.771,0.922,1.059,1.429   c0.289,0.504,0.568,0.956,0.795,1.413c0.226,0.458,0.445,0.862,0.61,1.268c0.15,0.424,0.283,0.808,0.382,1.171   c0.218,0.702,0.308,1.306,0.392,1.684c0.073,0.391,0.089,0.613,0.089,0.613s-0.237-0.006-0.638-0.045   c-0.39-0.05-0.995-0.076-1.663-0.173c-0.346-0.036-0.699-0.1-1.087-0.151c-0.414-0.019-0.822-0.077-1.265-0.111   c-0.87-0.092-1.777-0.228-2.775-0.267c-0.49-0.032-0.966-0.103-1.463-0.144c-0.514-0.007-1.022-0.033-1.526-0.071   c-0.988-0.128-2.061-0.053-3.058-0.178c-1.048,0.038-2.052-0.091-3.091-0.058c-1.022-0.077-2.056,0.005-3.081-0.068   c-1.026,0.07-2.059-0.019-3.083,0.055c-1.04-0.037-2.044,0.096-3.095,0.054c-0.998,0.124-2.074,0.047-3.062,0.176   c-0.504,0.038-1.012,0.065-1.527,0.071c-0.497,0.041-0.97,0.117-1.463,0.147c-1.017,0.055-1.863,0.151-2.712,0.225   c-0.446,0.034-0.863,0.066-1.249,0.095c-0.411,0.074-0.787,0.157-1.145,0.204c-0.693,0.123-1.299,0.151-1.684,0.201   C298.343,205.733,298.114,205.733,298.114,205.733z" data-original="#666666" class=""/>
	<path style="fill:#666666" d="M196.097,205.733c0,0,0.023-0.228,0.1-0.62c0.088-0.379,0.178-0.979,0.37-1.657   c0.086-0.351,0.197-0.716,0.324-1.118c0.166-0.408,0.39-0.818,0.627-1.283c0.235-0.467,0.532-0.929,0.843-1.448   c0.314-0.527,0.689-0.927,1.072-1.436c0.39-0.489,0.828-0.962,1.287-1.471c0.485-0.459,1.011-0.912,1.57-1.367   c1.094-0.964,2.431-1.66,3.825-2.435c1.441-0.61,2.971-1.271,4.61-1.577c1.622-0.422,3.324-0.521,5.021-0.6   c1.697,0.078,3.4,0.168,5.023,0.588c1.64,0.303,3.171,0.967,4.613,1.572c1.394,0.773,2.733,1.469,3.828,2.434   c0.558,0.456,1.085,0.91,1.571,1.367c0.458,0.51,0.895,0.988,1.287,1.474c0.378,0.506,0.771,0.922,1.059,1.429   c0.289,0.504,0.568,0.956,0.795,1.413c0.226,0.458,0.445,0.862,0.61,1.268c0.15,0.424,0.283,0.808,0.382,1.171   c0.218,0.702,0.308,1.306,0.392,1.684c0.073,0.391,0.089,0.613,0.089,0.613s-0.237-0.006-0.638-0.045   c-0.39-0.05-0.995-0.076-1.663-0.173c-0.346-0.036-0.699-0.1-1.087-0.151c-0.414-0.019-0.822-0.077-1.265-0.111   c-0.87-0.092-1.777-0.228-2.775-0.267c-0.49-0.032-0.966-0.103-1.463-0.144c-0.514-0.007-1.022-0.033-1.526-0.071   c-0.988-0.128-2.061-0.053-3.058-0.178c-1.048,0.038-2.052-0.091-3.091-0.058c-1.022-0.077-2.056,0.005-3.081-0.068   c-1.026,0.07-2.059-0.019-3.083,0.055c-1.04-0.037-2.044,0.096-3.095,0.054c-0.998,0.124-2.074,0.047-3.062,0.176   c-0.504,0.038-1.012,0.065-1.527,0.071c-0.497,0.041-0.971,0.117-1.463,0.147c-1.017,0.055-1.863,0.151-2.712,0.225   c-0.446,0.034-0.863,0.066-1.249,0.095c-0.411,0.074-0.787,0.157-1.145,0.204c-0.693,0.123-1.299,0.151-1.684,0.201   C196.326,205.733,196.097,205.733,196.097,205.733z" data-original="#666666" class=""/>
</g><path style="fill:#4D4D4D;" d="M317.762,243.54c-4.746,0-8.594-3.848-8.594-8.594v-13.745c0-4.746,3.848-8.594,8.594-8.594  s8.594,3.848,8.594,8.594v13.745C326.355,239.693,322.508,243.54,317.762,243.54z" data-original="#4D4D4D" class=""/><path style="fill:#E0B394;" d="M279.93,208.597v40.677c0,7.277-5.9,13.177-13.177,13.177l0,0c-7.277,0-13.177-5.9-13.177-13.177  v-40.677H279.93z" data-original="#E0B394"/></g> </svg>
