<svg height="512pt" viewBox="-62 0 512 512" width="512pt" xmlns="http://www.w3.org/2000/svg"><path d="m359.367188 512h-330.386719c-16.003907 0-28.980469-12.976562-28.980469-28.980469v-454.039062c0-16.003907 12.976562-28.980469 28.980469-28.980469h330.386719c16.003906 0 28.976562 12.976562 28.976562 28.980469v454.039062c0 16.003907-12.972656 28.980469-28.976562 28.980469zm0 0" fill="#e7e7e7"/><path d="m388.351562 28.984375v454.03125c0 16.003906-12.980468 28.984375-28.984374 28.984375h-27.984376c15.996094 0 28.976563-12.980469 28.976563-28.984375v-454.03125c0-16.003906-12.980469-28.984375-28.976563-28.984375h27.984376c16.003906 0 28.984374 12.980469 28.984374 28.984375zm0 0" fill="#cecece"/><path d="m0 80.390625v-51.410156c0-16.003907 12.976562-28.980469 28.980469-28.980469h330.386719c16.003906 0 28.976562 12.976562 28.976562 28.980469v51.410156zm0 0" fill="#838383"/><path d="m388.351562 28.984375v51.40625h-27.992187v-51.40625c0-16.003906-12.980469-28.984375-28.976563-28.984375h27.984376c16.003906 0 28.984374 12.980469 28.984374 28.984375zm0 0" fill="#5a5a5a"/><path d="m50.828125 65.289062c-1.921875 0-3.839844-.734374-5.304687-2.199218l-8.210938-8.210938c-2.929688-2.929687-2.929688-7.675781 0-10.605468 2.929688-2.925782 7.675781-2.925782 10.605469 0l2.90625 2.910156 2.910156-2.910156c2.929687-2.925782 7.675781-2.925782 10.605469 0 2.929687 2.929687 2.929687 7.679687 0 10.605468l-8.210938 8.210938c-1.464844 1.464844-3.382812 2.199218-5.300781 2.199218zm0 0" fill="#e7e7e7"/><path d="m59.039062 37.070312c-1.917968 0-3.839843-.730468-5.304687-2.195312l-2.90625-2.910156-2.910156 2.910156c-2.929688 2.929688-7.675781 2.929688-10.605469 0s-2.929688-7.679688 0-10.605469l8.210938-8.210937c2.929687-2.929688 7.679687-2.929688 10.605468 0l8.214844 8.210937c2.925781 2.929688 2.925781 7.675781 0 10.605469-1.464844 1.464844-3.386719 2.195312-5.304688 2.195312zm0 0" fill="#e7e7e7"/><path d="m219.851562 186.101562h-51.355468c-4.566406 0-8.265625-3.703124-8.265625-8.265624v-51.355469c0-4.566407 3.699219-8.269531 8.265625-8.269531h51.355468c4.566407 0 8.265626 3.703124 8.265626 8.269531v51.355469c0 4.5625-3.703126 8.265624-8.265626 8.265624zm0 0" fill="#80e0dc"/><path d="m323.804688 186.101562h-51.355469c-4.566407 0-8.265625-3.703124-8.265625-8.265624v-51.355469c0-4.566407 3.699218-8.269531 8.265625-8.269531h51.355469c4.566406 0 8.265624 3.703124 8.265624 8.269531v51.355469c0 4.5625-3.699218 8.265624-8.265624 8.265624zm0 0" fill="#83e5eb"/><path d="m115.894531 186.101562h-51.355469c-4.5625 0-8.265624-3.703124-8.265624-8.265624v-51.355469c0-4.566407 3.703124-8.269531 8.265624-8.269531h51.355469c4.566407 0 8.269531 3.703124 8.269531 8.269531v51.355469c0 4.5625-3.703124 8.265624-8.269531 8.265624zm0 0" fill="#018d9a"/><path d="m115.894531 186.101562h-12.941406v-67.890624h12.941406c4.566407 0 8.269531 3.703124 8.269531 8.265624v51.355469c0 4.566407-3.703124 8.269531-8.269531 8.269531zm0 0" fill="#007a7e"/><path d="m219.851562 186.101562h-12.941406v-67.890624h12.941406c4.566407 0 8.265626 3.703124 8.265626 8.265624v51.355469c0 4.566407-3.703126 8.269531-8.265626 8.269531zm0 0" fill="#00a8b0"/><path d="m323.804688 186.101562h-12.941407v-67.890624h12.941407c4.566406 0 8.265624 3.703124 8.265624 8.265624v51.355469c0 4.566407-3.699218 8.269531-8.265624 8.269531zm0 0" fill="#5cdae2"/><path d="m115.894531 280.914062h-51.355469c-4.5625 0-8.265624-3.699218-8.265624-8.265624v-51.355469c0-4.5625 3.703124-8.265625 8.265624-8.265625h51.355469c4.566407 0 8.269531 3.703125 8.269531 8.265625v51.355469c0 4.566406-3.703124 8.265624-8.269531 8.265624zm0 0" fill="#fa0"/><path d="m323.804688 280.914062h-51.355469c-4.566407 0-8.265625-3.699218-8.265625-8.265624v-51.355469c0-4.5625 3.699218-8.265625 8.265625-8.265625h51.355469c4.566406 0 8.265624 3.703125 8.265624 8.265625v51.355469c0 4.566406-3.699218 8.265624-8.265624 8.265624zm0 0" fill="#ffe1a8"/><path d="m219.851562 280.914062h-51.355468c-4.566406 0-8.265625-3.699218-8.265625-8.265624v-51.355469c0-4.5625 3.699219-8.265625 8.265625-8.265625h51.355468c4.566407 0 8.265626 3.703125 8.265626 8.265625v51.355469c0 4.566406-3.703126 8.265624-8.265626 8.265624zm0 0" fill="#ffd86e"/><path d="m323.804688 280.914062h-12.941407v-67.886718h12.941407c4.566406 0 8.265624 3.699218 8.265624 8.265625v51.355469c0 4.566406-3.699218 8.265624-8.265624 8.265624zm0 0" fill="#ffd98f"/><path d="m219.851562 280.914062h-12.941406v-67.886718h12.941406c4.566407 0 8.265626 3.699218 8.265626 8.265625v51.355469c0 4.566406-3.703126 8.265624-8.265626 8.265624zm0 0" fill="#ffb509"/><path d="m115.894531 280.914062h-12.941406v-67.886718h12.941406c4.566407 0 8.269531 3.699218 8.269531 8.265625v51.355469c0 4.566406-3.703124 8.265624-8.269531 8.265624zm0 0" fill="#ff9500"/><path d="m115.894531 375.730469h-51.355469c-4.5625 0-8.265624-3.699219-8.265624-8.265625v-51.359375c0-4.5625 3.703124-8.265625 8.265624-8.265625h51.355469c4.566407 0 8.269531 3.703125 8.269531 8.265625v51.359375c0 4.5625-3.703124 8.265625-8.269531 8.265625zm0 0" fill="#e32945"/><path d="m219.851562 375.730469h-51.355468c-4.566406 0-8.265625-3.699219-8.265625-8.265625v-51.359375c0-4.5625 3.699219-8.265625 8.265625-8.265625h51.355468c4.566407 0 8.265626 3.703125 8.265626 8.265625v51.359375c0 4.5625-3.703126 8.265625-8.265626 8.265625zm0 0" fill="#ff5770"/><path d="m323.804688 375.730469h-51.355469c-4.566407 0-8.265625-3.699219-8.265625-8.265625v-51.359375c0-4.5625 3.699218-8.265625 8.265625-8.265625h51.355469c4.566406 0 8.265624 3.703125 8.265624 8.265625v51.359375c0 4.5625-3.699218 8.265625-8.265624 8.265625zm0 0" fill="#ff9aa9"/><path d="m323.804688 375.730469h-12.941407v-67.890625h12.941407c4.566406 0 8.265624 3.703125 8.265624 8.265625v51.359375c0 4.5625-3.699218 8.265625-8.265624 8.265625zm0 0" fill="#ff7a8e"/><path d="m219.851562 375.730469h-12.941406v-67.890625h12.941406c4.566407 0 8.265626 3.703125 8.265626 8.265625v51.359375c0 4.5625-3.703126 8.265625-8.265626 8.265625zm0 0" fill="#ff435f"/><path d="m115.894531 375.730469h-12.941406v-67.890625h12.941406c4.566407 0 8.269531 3.703125 8.269531 8.265625v51.359375c0 4.5625-3.703124 8.265625-8.269531 8.265625zm0 0" fill="#cb223b"/><path d="m115.894531 470.542969h-51.355469c-4.5625 0-8.265624-3.699219-8.265624-8.265625v-51.355469c0-4.566406 3.703124-8.265625 8.265624-8.265625h51.355469c4.566407 0 8.269531 3.699219 8.269531 8.265625v51.355469c0 4.566406-3.703124 8.265625-8.269531 8.265625zm0 0" fill="#0055ca"/><path d="m219.851562 470.542969h-51.355468c-4.566406 0-8.265625-3.699219-8.265625-8.265625v-51.355469c0-4.566406 3.699219-8.265625 8.265625-8.265625h51.355468c4.566407 0 8.265626 3.699219 8.265626 8.265625v51.355469c0 4.566406-3.703126 8.265625-8.265626 8.265625zm0 0" fill="#0396fd"/><path d="m323.804688 470.542969h-51.355469c-4.566407 0-8.265625-3.699219-8.265625-8.265625v-51.355469c0-4.566406 3.699218-8.265625 8.265625-8.265625h51.355469c4.566406 0 8.265624 3.699219 8.265624 8.265625v51.355469c0 4.566406-3.699218 8.265625-8.265624 8.265625zm0 0" fill="#aed3ff"/><path d="m323.804688 470.542969h-12.941407v-67.886719h12.941407c4.566406 0 8.265624 3.699219 8.265624 8.265625v51.355469c0 4.566406-3.699218 8.265625-8.265624 8.265625zm0 0" fill="#83bfff"/><path d="m219.851562 470.542969h-12.941406v-67.886719h12.941406c4.566407 0 8.265626 3.699219 8.265626 8.265625v51.355469c0 4.566406-3.703126 8.265625-8.265626 8.265625zm0 0" fill="#0077f0"/><path d="m115.894531 470.542969h-12.941406v-67.886719h12.941406c4.566407 0 8.269531 3.699219 8.269531 8.265625v51.355469c0 4.566406-3.703124 8.265625-8.269531 8.265625zm0 0" fill="#00429c"/><g fill="#e7e7e7"><path d="m338.1875 28.351562h-35.828125c-4.144531 0-7.5-3.355468-7.5-7.5 0-4.140624 3.355469-7.496093 7.5-7.496093h35.828125c4.144531 0 7.5 3.355469 7.5 7.496093 0 4.144532-3.355469 7.5-7.5 7.5zm0 0"/><path d="m338.1875 47.695312h-35.828125c-4.144531 0-7.5-3.359374-7.5-7.5 0-4.140624 3.355469-7.5 7.5-7.5h35.828125c4.144531 0 7.5 3.359376 7.5 7.5 0 4.140626-3.355469 7.5-7.5 7.5zm0 0"/><path d="m338.1875 67.035156h-35.828125c-4.144531 0-7.5-3.355468-7.5-7.496094 0-4.144531 3.355469-7.5 7.5-7.5h35.828125c4.144531 0 7.5 3.355469 7.5 7.5 0 4.140626-3.355469 7.496094-7.5 7.496094zm0 0"/></g></svg>