<svg viewBox="1 1 511.99998 511.99998" xmlns="http://www.w3.org/2000/svg"><path d="m512 256c0 141.386719-114.613281 256-256 256s-256-114.613281-256-256 114.613281-256 256-256 256 114.613281 256 256zm0 0" fill="#442463"/><path d="m483.3125 256.003906c0 125.535156-101.773438 227.308594-227.308594 227.308594-16.914062 0-33.394531-1.851562-49.253906-5.351562-101.859375-22.496094-178.0625-113.328126-178.0625-221.957032 0-111.300781 79.988281-203.921875 185.625-223.492187 13.511719-2.519531 27.449219-3.824219 41.691406-3.824219 125.535156 0 227.308594 101.773438 227.308594 227.316406zm0 0" fill="#ededed"/><path d="m172.015625 443.230469 34.734375 34.730469c-101.859375-22.496094-178.0625-113.328126-178.0625-221.957032 0-111.300781 79.988281-203.921875 185.625-223.492187l-38.117188 33.511719-30.300781 49.109374-19.855469 79.410157v101.355469l13.585938 81.503906zm0 0" fill="#d6d6d6"/><path d="m127.273438 371.320312c-17.585938 6.652344-34.621094 14.660157-50.957032 23.921876 3.917969 5.046874 8.042969 9.929687 12.363282 14.625 14.320312-7.929688 29.199218-14.84375 44.515624-20.671876 2.78125 7.632813 5.808594 15.050782 9.089844 22.230469 10.933594 23.90625 24.339844 44.015625 39.375 59.441407 8.164063 2.824218 16.53125 5.203124 25.089844 7.09375 8.078125 1.785156 16.320312 3.132812 24.699219 4.035156-.398438-.152344-.800781-.296875-1.199219-.453125-33.054688-12.976563-60.921875-49.574219-78.726562-98.738281 13.417968-4.257813 27.117187-7.710938 41.035156-10.289063 17.675781-3.296875 35.8125-5.191406 54.042968-5.679687v116.265624c3.121094.125 6.253907.210938 9.40625.210938 3.148438 0 6.28125-.082031 9.402344-.207031v-116.277344c32.738282.867187 64.703125 6.28125 95.183594 15.90625-4.988281 13.707031-10.816406 26.570313-17.453125 38.367187-17.636719 31.351563-39.257813 52.21875-62.515625 60.878907 17.308594-1.863281 34.03125-5.671875 49.953125-11.199219 10.660156-10.992188 20.542969-24.4375 29.414063-40.199219 7.1875-12.777343 13.488281-26.699219 18.863281-41.515625 15.316406 5.808594 30.1875 12.738282 44.546875 20.695313 4.308594-4.6875 8.421875-9.558594 12.328125-14.597657-12.171875-6.894531-24.757813-13.113281-37.75-18.609374-4.390625-1.855469-8.8125-3.597657-13.253907-5.273438 9.699219-32.445312 15.191407-68.449219 15.980469-105.871094h82.398438c.125-3.121094.207031-6.253906.207031-9.40625s-.082031-6.285156-.207031-9.402344h-82.398438c-.785156-37.210937-6.21875-73.015624-15.816406-105.3125 4.386719-1.660156 8.753906-3.378906 13.089844-5.214843 13.113281-5.542969 25.816406-11.828125 38.089843-18.796875-3.890624-5.046875-7.984374-9.925782-12.28125-14.625-14.414062 8.015625-29.347656 14.992187-44.730468 20.835937-5.414063-15.023437-11.789063-29.132812-19.066406-42.074219-8.867188-15.757812-18.753907-29.207031-29.414063-40.195312-15.921875-5.527344-32.644531-9.335938-49.953125-11.203125 23.257812 8.664063 44.878906 29.53125 62.515625 60.878906 6.730469 11.960938 12.628906 25.015625 17.660156 38.9375-30.542969 9.664063-62.578125 15.101563-95.390625 15.96875v-116.902343c-3.121094-.128907-6.25-.210938-9.402344-.210938-3.152343 0-6.285156.074219-9.40625.203125v116.917969c-22.109374-.59375-44.121093-3.28125-65.5625-8.011719-10.054687-2.222656-19.984374-4.910156-29.765624-8.027344 3.011718-8.363281 6.332031-16.40625 9.949218-24.0625 18.371094-38.859375 43.210938-65.59375 70.222656-75.695312-5.777343.621093-11.492187 1.449219-17.128906 2.5-11.210937 2.078125-22.125 4.984375-32.691406 8.640625-14.347656 14.714844-27.207031 33.714844-37.878906 56.292968-3.90625 8.257813-7.484375 16.933594-10.722656 25.949219-15.390626-5.871093-30.335938-12.851562-44.71875-20.847656-4.304688 4.703125-8.414063 9.585937-12.316407 14.636719 16.410157 9.335937 33.523438 17.410156 51.191407 24.101562-9.605469 32.441406-15.085938 68.449219-15.882813 105.316406h-82.410156c-.125 3.121094-.199219 6.253907-.199219 9.402344 0 3.152344.070312 6.285156.199219 9.40625h82.402343c.777344 37.503906 6.21875 73.367188 15.984376 105.910156zm138.132812-206.695312c34.675781-.867188 68.566406-6.574219 101.222656-16.972656 8.90625 30.277344 13.96875 63.90625 14.738282 98.949218h-115.960938zm0 100.785156h115.960938c-.773438 35.261719-5.894532 69.089844-14.90625 99.515625-32.601563-10.363281-66.4375-16.050781-101.054688-16.917969zm-119.960938-117.761718c10.363282 3.304687 20.882813 6.160156 31.539063 8.511718 22.769531 5.027344 46.144531 7.863282 69.613281 8.460938v81.980468h-115.964844c.78125-34.707031 5.886719-68.523437 14.8125-98.953124zm101.152344 117.761718v82.605469c-19.378906.496094-38.675781 2.503906-57.476562 6.007813-14.746094 2.730468-29.253906 6.394531-43.464844 10.910156-8.898438-30.109375-14.222656-64-15.027344-99.523438zm0 0" fill="#583377"/><path d="m435.445312 333.65625h-358.890624c-15.160157 0-27.449219-12.289062-27.449219-27.445312v-100.417969c0-15.160157 12.289062-27.449219 27.449219-27.449219h358.890624c15.160157 0 27.449219 12.289062 27.449219 27.449219v100.417969c0 15.15625-12.289062 27.445312-27.449219 27.445312zm0 0" fill="#ff4f9b"/><path d="m76.554688 312.757812c-3.609376 0-6.550782-2.9375-6.550782-6.550781v-100.417969c0-3.609374 2.941406-6.550781 6.550782-6.550781h358.890624c3.613282 0 6.550782 2.941407 6.550782 6.550781v100.417969c0 3.613281-2.9375 6.550781-6.550782 6.550781zm0 0" fill="#fff"/><g fill="#442463"><path d="m172.613281 290.542969c-1.308593 3.820312-6.21875 5.675781-11.238281 5.675781-4.910156 0-10.152344-1.855469-11.023438-5.675781l-5.675781-25.867188-5.675781 25.867188c-.871094 3.820312-6.113281 5.675781-11.023438 5.675781-5.019531 0-10.039062-1.855469-11.242187-5.675781l-21.71875-66.578125c-.109375-.324219-.21875-.871094-.21875-1.417969 0-3.707031 6.113281-6.765625 11.023437-6.765625 2.621094 0 4.804688.875 5.457032 3.164062l16.589844 55.992188 8.621093-36.890625c.65625-2.949219 4.476563-4.476563 8.1875-4.476563 3.710938 0 7.527344 1.527344 8.183594 4.476563l8.621094 36.890625 16.589843-55.992188c.65625-2.289062 2.839844-3.164062 5.457032-3.164062 4.910156 0 11.023437 3.058594 11.023437 6.765625 0 .546875-.109375 1.09375-.21875 1.417969zm0 0"/><path d="m283.941406 290.542969c-1.3125 3.820312-6.222656 5.675781-11.242187 5.675781-4.910157 0-10.152344-1.855469-11.023438-5.675781l-5.675781-25.867188-5.675781 25.867188c-.871094 3.820312-6.113281 5.675781-11.023438 5.675781-5.019531 0-10.039062-1.855469-11.242187-5.675781l-21.71875-66.574219c-.105469-.328125-.21875-.875-.21875-1.417969 0-3.710937 6.113281-6.769531 11.027344-6.769531 2.617187 0 4.800781.875 5.453124 3.167969l16.589844 55.988281 8.621094-36.890625c.65625-2.945313 4.476562-4.472656 8.1875-4.472656s7.53125 1.527343 8.183594 4.472656l8.621094 36.890625 16.589843-55.988281c.65625-2.292969 2.839844-3.167969 5.457031-3.167969 4.910157 0 11.023438 3.058594 11.023438 6.769531 0 .542969-.109375 1.089844-.21875 1.417969zm0 0"/><path d="m395.265625 290.542969c-1.3125 3.820312-6.222656 5.675781-11.242187 5.675781-4.910157 0-10.152344-1.855469-11.023438-5.675781l-5.675781-25.867188-5.675781 25.867188c-.871094 3.820312-6.113282 5.675781-11.019532 5.675781-5.023437 0-10.042968-1.855469-11.242187-5.675781l-21.722657-66.578125c-.105468-.324219-.214843-.871094-.214843-1.417969 0-3.707031 6.109375-6.765625 11.023437-6.765625 2.617188 0 4.800782.875 5.453125 3.164062l16.589844 55.992188 8.621094-36.890625c.65625-2.949219 4.476562-4.476563 8.1875-4.476563 3.710937 0 7.53125 1.527344 8.183593 4.476563l8.621094 36.890625 16.589844-55.992188c.65625-2.289062 2.839844-3.164062 5.457031-3.164062 4.910157 0 11.023438 3.058594 11.023438 6.765625 0 .546875-.109375 1.09375-.21875 1.417969zm0 0"/></g></svg>