<svg height="512pt" viewBox="0 -42 512.00004 512" width="512pt" xmlns="http://www.w3.org/2000/svg"><path d="m264.257812 245.5v-172.875c0-4.710938-3.816406-8.53125-8.527343-8.53125h-247.203125c-4.707032 0-8.527344 3.820312-8.527344 8.53125v323.117188c0 4.710937 3.816406 8.527343 8.527344 8.527343h338.640625v-150.242187c0-4.707032-3.816407-8.527344-8.527344-8.527344zm0 0" fill="#e6f6fc"/><g fill="#ea6789"><path d="m60.535156 68.214844v59.828125c0 2.277343-1.847656 4.121093-4.121094 4.121093h-52.292968c-2.277344 0-4.121094-1.84375-4.121094-4.121093v-59.828125c0-2.273438 1.84375-4.121094 4.121094-4.121094h52.292968c2.273438.003906 4.121094 1.847656 4.121094 4.121094zm0 0"/><path d="m83 68.214844v59.828125c0 2.277343 1.84375 4.121093 4.121094 4.121093h112.652344c2.277343 0 4.121093-1.84375 4.121093-4.121093v-59.828125c0-2.273438-1.84375-4.121094-4.121093-4.121094h-112.652344c-2.277344.003906-4.121094 1.847656-4.121094 4.121094zm0 0"/><path d="m226.359375 68.214844v59.828125c0 2.277343 1.84375 4.121093 4.121094 4.121093h29.65625c2.277343 0 4.121093-1.84375 4.121093-4.121093v-59.828125c0-2.273438-1.84375-4.121094-4.121093-4.121094h-29.65625c-2.277344.003906-4.121094 1.847656-4.121094 4.121094zm0 0"/><path d="m120.90625 158.917969v59.828125c0 2.277344-1.847656 4.121094-4.121094 4.121094h-112.664062c-2.277344 0-4.121094-1.84375-4.121094-4.121094v-59.828125c0-2.273438 1.84375-4.121094 4.121094-4.121094h112.664062c2.273438 0 4.121094 1.847656 4.121094 4.121094zm0 0"/><path d="m143.363281 158.917969v59.828125c0 2.277344 1.84375 4.121094 4.121094 4.121094h112.652344c2.277343 0 4.121093-1.84375 4.121093-4.121094v-59.828125c0-2.273438-1.84375-4.121094-4.121093-4.121094h-112.65625c-2.273438 0-4.117188 1.847656-4.117188 4.121094zm0 0"/><path d="m60.535156 249.621094v59.828125c0 2.273437-1.847656 4.121093-4.121094 4.121093h-52.292968c-2.277344 0-4.121094-1.847656-4.121094-4.121093v-59.828125c0-2.277344 1.84375-4.121094 4.121094-4.121094h52.292968c2.273438 0 4.121094 1.847656 4.121094 4.121094zm0 0"/><path d="m83 249.621094v59.828125c0 2.273437 1.84375 4.121093 4.121094 4.121093h112.652344c2.277343 0 4.121093-1.847656 4.121093-4.121093v-59.828125c0-2.277344-1.84375-4.121094-4.121093-4.121094h-112.652344c-2.277344 0-4.121094 1.84375-4.121094 4.121094zm0 0"/><path d="m226.359375 249.621094v59.828125c0 2.273437 1.84375 4.121093 4.121094 4.121093h112.652343c2.277344 0 4.121094-1.847656 4.121094-4.121093v-59.828125c0-2.277344-1.84375-4.121094-4.121094-4.121094h-112.65625c-2.273437 0-4.117187 1.84375-4.117187 4.121094zm0 0"/><path d="m120.90625 340.324219v59.828125c0 2.273437-1.847656 4.121094-4.121094 4.121094h-112.664062c-2.277344 0-4.121094-1.847657-4.121094-4.121094v-59.828125c0-2.277344 1.84375-4.121094 4.121094-4.121094h112.664062c2.273438 0 4.121094 1.84375 4.121094 4.121094zm0 0"/><path d="m143.363281 340.324219v59.828125c0 2.273437 1.84375 4.121094 4.121094 4.121094h112.652344c2.277343 0 4.121093-1.847657 4.121093-4.121094v-59.828125c0-2.277344-1.84375-4.121094-4.121093-4.121094h-112.65625c-2.273438 0-4.117188 1.84375-4.117188 4.121094zm0 0"/><path d="m286.71875 340.324219v59.828125c0 2.273437 1.847656 4.121094 4.121094 4.121094h112.65625c2.277344 0 4.121094-1.847657 4.121094-4.121094v-59.828125c0-2.277344-1.84375-4.121094-4.121094-4.121094h-112.65625c-2.273438 0-4.121094 1.84375-4.121094 4.121094zm0 0"/></g><path d="m505.800781 196.472656c-24.3125 43.699219-160.671875 43.699219-184.984375 0-27.183594-48.859375 40.785156-196.472656 92.492188-196.472656 51.703125 0 119.675781 147.613281 92.492187 196.472656zm0 0" fill="#aabfd5"/><path d="m413.308594 0c-2.171875 0-4.375.28125-6.59375.785156 44.308594 11.460938 97.917968 148.882813 75.140625 195.6875-10.054688 20.652344-41.996094 31.539063-75.140625 32.667969 42.277344 1.261719 86.265625-9.621094 99.085937-32.667969 27.183594-48.859375-40.785156-196.472656-92.492187-196.472656zm0 0" fill="#7d8eb0"/><path d="m413.308594 268.566406c-4.269532 0-7.726563-3.460937-7.726563-7.726562v-56.214844c0-4.269531 3.457031-7.726562 7.726563-7.726562 4.265625 0 7.726562 3.457031 7.726562 7.726562v56.214844c0 4.265625-3.460937 7.726562-7.726562 7.726562zm0 0" fill="#3a4d7b"/><path d="m450.230469 387.449219h.003906c-.007813-.078125-.015625-.148438-.023437-.226563-.003907-.042968-.007813-.085937-.011719-.128906-5.476563-58.09375-5.484375-58.195312-9.558594-101.378906h-.007813c-1.300781-13.949219-13.03125-24.875-27.324218-24.875-14.292969 0-26.023438 10.921875-27.324219 24.875h-.007813c-4.074218 43.183594-4.082031 43.285156-9.5625 101.378906-.003906.042969-.007812.085938-.011718.128906-.003906.078125-.011719.148438-.019532.226563h.003907c-.109375 1.148437-.167969 2.308593-.167969 3.484375 0 20.484375 16.605469 37.085937 37.089844 37.085937 20.480468 0 37.085937-16.605469 37.085937-37.085937.003907-1.175782-.058593-2.335938-.164062-3.484375zm0 0" fill="#56a6e8"/><path d="m450.230469 387.449219h.003906c-.007813-.078125-.015625-.148438-.023437-.226563-.003907-.042968-.007813-.085937-.011719-.128906-5.476563-58.09375-5.484375-58.195312-9.558594-101.378906h-.007813c-1.300781-13.953125-13.03125-24.875-27.324218-24.875-2.632813 0-5.175782.371094-7.585938 1.0625 7.046875 3.066406 12.335938 12.429687 13.035156 23.8125h.007813c2.6875 43.183594 2.695313 43.285156 6.3125 101.378906 0 .042969.003906.085938.007813.128906.003906.078125.007812.148438.011718.226563.070313 1.148437.109375 2.308593.109375 3.484375 0 17.882812-8.359375 32.804687-19.484375 36.308594 2.449219.507812 4.984375.777343 7.585938.777343 20.480468 0 37.089844-16.605469 37.089844-37.085937 0-1.175782-.0625-2.335938-.167969-3.484375zm0 0" fill="#2176c7"/><path d="m444.402344 325.59375c-.730469-7.730469-1.457032-15.425781-2.464844-26.125-8.539062 4.539062-18.28125 7.121094-28.628906 7.121094s-20.089844-2.582032-28.628906-7.121094c-1.007813 10.699219-1.734376 18.394531-2.464844 26.125 9.644531 3.746094 20.125 5.824219 31.09375 5.824219s21.449218-2.078125 31.09375-5.824219zm0 0" fill="#f9aa4b"/><path d="m444.355469 325.125c-.710938-7.574219-1.429688-15.171875-2.417969-25.65625-6.660156 3.542969-14.054688 5.882812-21.898438 6.746094.597657 9.59375 1.050782 16.816406 1.546876 24.800781 7.972656-.769531 15.625-2.628906 22.816406-5.421875-.015625-.15625-.03125-.3125-.046875-.46875zm0 0" fill="#c1762b"/></svg>