<?xml version="1.0" encoding="iso-8859-1"?>
<!-- Generator: Adobe Illustrator 19.0.0, SVG Export Plug-In . SVG Version: 6.00 Build 0)  -->
<svg version="1.1" id="Layer_1" xmlns="http://www.w3.org/2000/svg" xmlns:xlink="http://www.w3.org/1999/xlink" x="0px" y="0px"
	 viewBox="0 0 512 512" style="enable-background:new 0 0 512 512;" xml:space="preserve">
<rect x="247.295" y="254.709" style="fill:#F9BF8C;" width="83.407" height="115.523"/>
<rect x="247.295" y="254.709" style="fill:#EFB27B;" width="22.261" height="115.523"/>
<path style="fill:#48ADE1;" d="M484.548,408.563c-4.945-49.647-29.783-89.613-73.887-101.54v-0.06
	c-0.611-0.164-1.222-0.325-1.839-0.477h-0.227c-2.399-0.592-4.85-1.107-7.358-1.534c-0.04-0.022-0.083-0.036-0.122-0.057
	c-2.426-0.404-4.915-0.709-7.444-0.954c-0.167-0.017-0.333-0.034-0.502-0.051c-0.787-0.072-1.581-0.14-2.379-0.197
	c-1.04-0.076-2.085-0.141-3.141-0.189c-0.495-0.022-0.994-0.037-1.494-0.052c-1.209-0.041-2.426-0.068-3.655-0.072
	c-0.106-0.001-0.208-0.007-0.314-0.007h-0.226h-12.483h-0.228h-6.528h-0.226h-0.885h-0.228h-3.035l-27.418-12.088v0.1l-0.228-0.1
	v12.088l0,0l-41.59,51.956l-41.59-51.956h-0.001v-12.088l-0.227,0.1v-0.1l-27.418,12.088h-3.036h-0.227h-0.885H215.5h-6.528h-0.227
	h-12.483h-0.227c-0.106,0-0.208,0.006-0.314,0.007c-1.23,0.006-2.448,0.031-3.656,0.072c-0.499,0.016-0.997,0.029-1.493,0.052
	c-1.056,0.048-2.103,0.113-3.142,0.189c-0.798,0.057-1.591,0.124-2.379,0.197c-0.168,0.017-0.335,0.035-0.502,0.051
	c-2.527,0.246-5.018,0.55-7.442,0.954c-0.04,0.021-0.083,0.035-0.124,0.057c-2.509,0.426-4.961,0.942-7.358,1.534h-0.227
	c-0.618,0.152-1.229,0.313-1.838,0.477v0.06c-44.105,11.927-68.942,51.892-73.888,101.54c-0.613,6.161-0.92,12.472-0.92,18.896
	v26.604v44.581c0,0.461,0.023,0.916,0.069,1.366c0.683,6.734,6.37,11.991,13.286,11.991h366.005c6.915,0,12.602-5.257,13.288-11.991
	c0.046-0.449,0.07-0.905,0.07-1.366v-44.581v-26.604C485.47,421.034,485.162,414.724,484.548,408.563z"/>
<path style="fill:#BDBEC0;" d="M113.675,383.278H97.429c-1.957,0-3.887-0.111-5.79-0.314v18.365v78.949v18.365
	c0,7.376,5.98,13.357,13.357,13.357h1.113c7.377,0,13.357-5.98,13.357-13.357v-18.365v-78.95v-18.365
	C117.562,383.166,115.63,383.278,113.675,383.278z"/>
<path style="fill:#FF5855;" d="M43.544,291.285v15.201v26.071v15.201c0,29.757,24.125,53.885,53.885,53.885h16.246
	c29.759,0,53.886-24.127,53.886-53.885v-15.201v-26.071v-15.201H43.544z"/>
<g>
	<path style="fill:#48ADE1;" d="M94.516,401.562c-0.007-0.001-0.014-0.001-0.021-0.002C94.501,401.56,94.509,401.56,94.516,401.562z
		"/>
	<path style="fill:#48ADE1;" d="M485.47,427.459c0-6.424-0.308-12.734-0.922-18.896c-5.932-59.558-40.482-105.19-102.589-105.19
		h-12.711h-6.754h-1.113h-3.263L330.7,291.285v12.088l0,0l-41.705,52.097l-41.702-52.097h-0.001v-12.088l-27.418,12.088h-3.263
		h-1.112h-6.755h-12.71c-6.624,0-12.931,0.524-18.927,1.523c-1.928,1.011-4.118,1.591-6.447,1.591h-1.263
		c-0.618,0.152-1.229,0.313-1.838,0.477v40.794c0,27.802-21.06,50.681-48.096,53.571v97.316c0,7.376-5.979,13.357-13.357,13.357
		h366.005c6.915,0,12.602-5.257,13.288-11.991c0.046-0.449,0.07-0.905,0.07-1.366v-44.581"/>
	<path style="fill:#48ADE1;" d="M116.587,401.562c0.008-0.001,0.014-0.001,0.021-0.002
		C116.602,401.56,116.595,401.56,116.587,401.562z"/>
</g>
<path style="fill:#82D6F4;" d="M367.9,433.735h-25.479c-7.376,0-13.357,5.98-13.357,13.357V512h52.192v-64.908
	C381.257,439.716,375.277,433.735,367.9,433.735z"/>
<g>
	<path style="fill:#FF423E;" d="M270.153,368.233l18.844-12.763l-41.702-52.097h-0.001v-12.088l-27.418,12.088l35.491,61.203
		C255.571,364.909,261.367,374.178,270.153,368.233z"/>
	<path style="fill:#FF423E;" d="M307.839,368.233l-18.844-12.763l41.705-52.097l0,0v-12.088l27.418,12.088l-35.491,61.203
		C322.425,364.909,316.628,374.178,307.839,368.233z"/>
</g>
<polygon style="fill:#E52828;" points="288.997,355.469 276.468,363.955 276.468,512 298.468,512 301.525,512 301.525,363.954 "/>
<g>
	<path style="fill:#2595B7;" d="M177.591,512v-89.814c0-4.611-3.738-8.348-8.348-8.348c-4.61,0-8.348,3.736-8.348,8.348V512H177.591
		z"/>
	<path style="fill:#2595B7;" d="M417.097,512v-89.814c0-4.611-3.738-8.348-8.348-8.348s-8.348,3.736-8.348,8.348V512H417.097z"/>
</g>
<path style="fill:#70CFE8;" d="M367.9,433.735h-25.479c-7.376,0-13.357,5.98-13.357,13.357v18.452h52.192v-18.452
	C381.257,439.716,375.277,433.735,367.9,433.735z"/>
<path style="fill:#C64040;" d="M65.805,347.758v-15.201v-26.071v-15.201H43.544v15.201v26.071v15.201
	c0,29.757,24.125,53.885,53.885,53.885h16.246c1.01,0,2.011-0.033,3.007-0.088C88.322,399.993,65.805,376.506,65.805,347.758z"/>
<path style="fill:#F9BF8C;" d="M380.785,143.806c-1.726,0-3.41,0.175-5.039,0.504v49.376c1.628,0.328,3.314,0.504,5.039,0.504
	c13.913,0,25.194-11.278,25.194-25.193C405.979,155.085,394.698,143.806,380.785,143.806z"/>
<path style="fill:#EFB27B;" d="M196.878,143.806c1.726,0,3.41,0.175,5.039,0.504v49.376c-1.628,0.328-3.314,0.504-5.039,0.504
	c-13.913,0-25.193-11.278-25.193-25.193C171.685,155.085,182.965,143.806,196.878,143.806z"/>
<g>
	<path style="fill:#D55400;" d="M380.785,144.919c6.559,0,12.528,2.507,17.011,6.613v-32.108h-22.049v25.998
		C377.375,145.094,379.06,144.919,380.785,144.919z"/>
	<path style="fill:#D55400;" d="M196.878,144.919c1.726,0,3.41,0.175,5.039,0.504l0,0h0.329v-25.998h-22.049v31.814
		C184.64,147.309,190.478,144.919,196.878,144.919z"/>
</g>
<path style="fill:#FFD3A4;" d="M199.464,102.332v94.11c0,48.137,39.165,87.299,87.303,87.299h4.461
	c48.139,0,87.303-39.162,87.303-87.299v-94.11H199.464z"/>
<path style="fill:#F9BE8F;" d="M221.724,196.442v-94.11h-22.261v94.11c0,48.137,39.165,87.299,87.303,87.299h4.461
	c3.004,0,5.974-0.152,8.9-0.45C256.153,278.819,221.724,241.575,221.724,196.442z"/>
<path style="fill:#48ADE1;" d="M288.997,90.804c42.332,0,79.711,7.624,102.197,19.268C391.179,49.28,345.431,0,288.997,0
	C232.561,0,186.815,49.28,186.8,110.072C209.287,98.429,246.664,90.804,288.997,90.804z"/>
<path style="fill:#178BAF;" d="M300.127,0.652C296.471,0.226,292.76,0,288.997,0C232.561,0,186.815,49.28,186.8,110.072
	c6.401-3.315,14.011-6.301,22.595-8.881C213.31,48.524,251.627,6.313,300.127,0.652z"/>
<path style="fill:#828186;" d="M407.694,116.568c-19.435-18.018-66.026-29.659-118.698-29.659
	c-52.671,0-99.262,11.642-118.696,29.659c-1.175,1.09-1.563,2.787-0.977,4.28c0.585,1.491,2.025,2.473,3.626,2.473h232.095
	c1.602,0,3.041-0.982,3.627-2.473C409.258,119.355,408.868,117.658,407.694,116.568z"/>
<path style="fill:#FF3632;" d="M117.232,306.485h-76.79c-7.683,0-13.913-6.23-13.913-13.913c0-7.683,6.23-13.913,13.913-13.913
	h130.219c7.684,0,13.913,6.23,13.913,13.913c0,7.683-6.229,13.913-13.913,13.913h-25.974"/>
<path style="fill:#C12323;" d="M48.79,292.572c0-7.683,6.23-13.913,13.913-13.913H40.442c-7.683,0-13.913,6.23-13.913,13.913
	c0,7.683,6.23,13.913,13.913,13.913h22.261C55.018,306.485,48.79,300.257,48.79,292.572z"/>
<g>
</g>
<g>
</g>
<g>
</g>
<g>
</g>
<g>
</g>
<g>
</g>
<g>
</g>
<g>
</g>
<g>
</g>
<g>
</g>
<g>
</g>
<g>
</g>
<g>
</g>
<g>
</g>
<g>
</g>
</svg>
