<svg height="512pt" viewBox="0 0 512 512" width="512pt" xmlns="http://www.w3.org/2000/svg"><path d="m346 30h60v152h-60zm0 0" fill="#3e5959"/><path d="m376 30h30v152h-30zm0 0" fill="#384949"/><path d="m450.707031 164.054688c-1.40625-7-7.558593-12.054688-14.707031-12.054688h-240c-8.289062 0-16 6.710938-16 15l-29.707031 152.945312 330.414062-5.890624zm0 0" fill="#ae3200"/><path d="m211 61v271l-211-30v-211zm0 0" fill="#3e5959"/><path d="m211 61v271l-106-15v-241zm0 0" fill="#384949"/><path d="m512 347v90c0 8.398438-6.597656 15-15 15h-452c-24.902344 0-45-20.101562-45-45v-105h466c24.902344 0 46 20.097656 46 45zm0 0" fill="#ff7816"/><path d="m512 347v90c0 8.398438-6.597656 15-15 15h-392v-150h361c24.902344 0 46 20.097656 46 45zm0 0" fill="#ff4b00"/><path d="m105 137c-24.902344 0-45 20.097656-45 45v60c0 8.398438 6.597656 15 15 15h60c8.402344 0 15-6.601562 15-15v-60c0-24.902344-20.097656-45-45-45zm0 0" fill="#ececf1"/><g fill="#e2e2e7"><path d="m376 272c-8.289062 0-15-6.710938-15-15v-30c0-8.289062 6.710938-15 15-15s15 6.710938 15 15v30c0 8.289062-6.710938 15-15 15zm0 0"/><path d="m316 272c-8.289062 0-15-6.710938-15-15v-30c0-8.289062 6.710938-15 15-15s15 6.710938 15 15v30c0 8.289062-6.710938 15-15 15zm0 0"/><path d="m256 272c-8.289062 0-15-6.710938-15-15v-30c0-8.289062 6.710938-15 15-15s15 6.710938 15 15v30c0 8.289062-6.710938 15-15 15zm0 0"/></g><path d="m421 392c-33 0-60 27-60 60s27 60 60 60 60-27 60-60-27-60-60-60zm0 0" fill="#4a696f"/><path d="m481 452c0 33-27 60-60 60v-120c33 0 60 27 60 60zm0 0" fill="#384949"/><path d="m421 422c-16.5 0-30 13.5-30 30s13.5 30 30 30 30-13.5 30-30-13.5-30-30-30zm0 0" fill="#ececf1"/><path d="m451 452c0 16.5-13.5 30-30 30v-60c16.5 0 30 13.5 30 30zm0 0" fill="#d3d3d8"/><path d="m271 392c-33 0-60 27-60 60s27 60 60 60 60-27 60-60-27-60-60-60zm0 0" fill="#4a696f"/><path d="m331 452c0 33-27 60-60 60v-120c33 0 60 27 60 60zm0 0" fill="#384949"/><path d="m271 422c-16.5 0-30 13.5-30 30s13.5 30 30 30 30-13.5 30-30-13.5-30-30-30zm0 0" fill="#ececf1"/><path d="m301 452c0 16.5-13.5 30-30 30v-60c16.5 0 30 13.5 30 30zm0 0" fill="#d3d3d8"/><path d="m105 362c-41.398438 0-75 33.601562-75 75s33.601562 75 75 75 75-33.601562 75-75-33.601562-75-75-75zm0 0" fill="#4a696f"/><path d="m180 437c0 41.398438-33.601562 75-75 75v-150c41.398438 0 75 33.601562 75 75zm0 0" fill="#384949"/><path d="m105 392c-24.902344 0-45 20.097656-45 45 0 24.898438 20.097656 45 45 45s45-20.101562 45-45c0-24.902344-20.097656-45-45-45zm0 0" fill="#ececf1"/><path d="m150 437c0 24.898438-20.097656 45-45 45v-90c24.902344 0 45 20.097656 45 45zm0 0" fill="#d3d3d8"/><path d="m120 437c0 8.398438-6.597656 15-15 15s-15-6.601562-15-15c0-8.402344 6.597656-15 15-15s15 6.597656 15 15zm0 0" fill="#4a696f"/><path d="m120 437c0 8.398438-6.597656 15-15 15v-30c8.402344 0 15 6.597656 15 15zm0 0" fill="#384949"/><path d="m241 61c0 16.5-13.5 30-30 30h-211v-45c0-8.402344 6.597656-15 15-15h196c16.5 0 30 13.5 30 30zm0 0" fill="#ff7816"/><path d="m211 91h-106v-60h106c16.5 0 30 13.5 30 30s-13.5 30-30 30zm0 0" fill="#ff4b00"/><path d="m150 182v60c0 8.398438-6.597656 15-15 15h-30v-120c24.902344 0 45 20.097656 45 45zm0 0" fill="#e2e2e7"/><path d="m434.5 21.597656-28.5 38.402344h-60l-28.5-38.402344c-4.800781-9.898437 2.398438-21.597656 13.5-21.597656h90c11.101562 0 18.300781 11.699219 13.5 21.597656zm0 0" fill="#ff7816"/><path d="m434.5 21.597656-28.5 38.402344h-30v-60h45c11.101562 0 18.300781 11.699219 13.5 21.597656zm0 0" fill="#ff4b00"/></svg>