<?xml version="1.0" encoding="iso-8859-1"?>
<!-- Generator: Adobe Illustrator 19.0.0, SVG Export Plug-In . SVG Version: 6.00 Build 0)  -->
<svg version="1.1" id="Capa_1" xmlns="http://www.w3.org/2000/svg" xmlns:xlink="http://www.w3.org/1999/xlink" x="0px" y="0px"
	 viewBox="0 0 512 512" style="enable-background:new 0 0 512 512;" xml:space="preserve">
<g>
	<polygon style="fill:#3E4347;" points="118.016,512 168.32,430.736 114.656,430.736 33.536,512 	"/>
	<polygon style="fill:#3E4347;" points="478.464,512 397.344,430.736 343.68,430.736 393.984,512 	"/>
	<polygon style="fill:#3E4347;" points="383.184,452.768 128.816,452.768 135.6,444.048 376.416,444.048 	"/>
	<polygon style="fill:#3E4347;" points="408.592,485.456 103.408,485.456 113.056,473.056 398.944,473.056 	"/>
</g>
<path style="fill:#E24B4B;" d="M430.672,152.016V392c0,5.52-4.48,9.984-9.984,9.984H92c-5.52,0-9.984-4.48-9.984-9.984V152.032
	c0-38.816,9.008-76.896,26.032-111.344c11.424-23.12,35.504-37.328,61.296-37.328H343.36c25.792,0,49.856,14.192,61.28,37.312
	C421.664,75.12,430.672,113.2,430.672,152.016z"/>
<g>
	<path style="fill:#FFD93B;" d="M191.824,262.8c0,4.576-1.856,8.704-4.848,11.696c-3.008,2.992-7.136,4.848-11.696,4.848h-56.704
		c-9.136,0-16.544-7.408-16.544-16.544v-18.272c0-11.232,10.928-19.2,21.616-15.76l56.688,18.272
		C187.184,249.248,191.824,255.616,191.824,262.8z"/>
	<path style="fill:#FFD93B;" d="M410.656,244.528V262.8c0,9.136-7.408,16.544-16.544,16.544h-56.704
		c-4.56,0-8.704-1.856-11.696-4.848c-2.992-3.008-4.848-7.136-4.848-11.696c0-7.184,4.64-13.552,11.472-15.76l56.688-18.272
		C399.728,225.328,410.656,233.296,410.656,244.528z"/>
</g>
<path style="fill:#3E4347;" d="M399.696,168.112c-97.232,29.984-194.384,29.216-286.688,0C113.008-4,163.136,3.376,163.136,3.376
	L256.336,0l93.216,3.376C349.552,3.376,399.696-4,399.696,168.112z"/>
<g>
	<path style="fill:#5A5F63;" d="M186.672,2.512C153.024,34.56,130.608,72,115.68,106.192c-1.68,17.52-2.672,37.92-2.672,61.92
		c4.896,1.552,9.872,2.688,14.784,4.08c12.48-46.896,42.96-123.808,114.048-171.664L186.672,2.512z"/>
	<path style="fill:#5A5F63;" d="M279.088,0.832c-77.712,47.952-114.384,127.36-130.528,177.04c5.328,1.248,10.72,2.096,16.08,3.168
		C181.872,128.96,222.496,44.064,311.344,2L279.088,0.832z"/>
</g>
<path style="fill:#FFFFFF;" d="M112.992,154.192l143.344,26.56l143.344-26.56v27.824l-143.344,45.952
	c0,0-121.072-28.8-143.344-45.952C112.992,182.016,112.992,154.192,112.992,154.192z"/>
<path style="fill:#D03F3F;" d="M346.688,311.744v82.432H166v-82.432c0-10.224,8.272-18.496,18.48-18.496h143.728
	C338.416,293.248,346.688,301.536,346.688,311.744z"/>
<g>
	<path style="fill:#3E4347;" d="M139.344,346.672v34.336c-18.272,0-33.056-17.632-33.056-39.392v-34.32
		C124.544,307.28,139.344,324.912,139.344,346.672z"/>
	<path style="fill:#3E4347;" d="M373.328,346.672v34.336c18.256,0,33.056-17.632,33.056-39.392v-34.32
		C388.144,307.28,373.328,324.912,373.328,346.672z"/>
</g>
<path style="fill:#DAE5EF;" d="M447.392,400.656l-16.352,29.92c-1.472,2.704-4.304,4.384-7.392,4.384H88.352
	c-3.072,0-5.904-1.68-7.392-4.384l-16.352-29.92C61.536,395.04,65.6,388.192,72,388.192h367.984
	C446.4,388.192,450.448,395.056,447.392,400.656z"/>
<g>
	<path style="fill:#BF3333;" d="M324.384,318.128c0,3.12-2.512,5.632-5.632,5.632H193.936c-3.12,0-5.632-2.512-5.632-5.632
		c0-2.992,2.512-5.52,5.632-5.52h124.816C321.856,312.608,324.384,315.136,324.384,318.128z"/>
	<path style="fill:#BF3333;" d="M324.384,342c0,3.12-2.512,5.632-5.632,5.632H193.936c-3.12,0-5.632-2.512-5.632-5.632
		c0-2.992,2.512-5.52,5.632-5.52h124.816C321.856,336.496,324.384,339.008,324.384,342z"/>
	<path style="fill:#BF3333;" d="M324.384,365.888c0,3.12-2.512,5.632-5.632,5.632H193.936c-3.12,0-5.632-2.512-5.632-5.632
		c0-2.992,2.512-5.52,5.632-5.52h124.816C321.856,360.368,324.384,362.896,324.384,365.888z"/>
</g>
<g>
	<path style="fill:#F4C534;" d="M410.688,244.544v18.336c0,9.008-7.36,16.528-16.528,16.528h-56.8c-3.936,0-7.36-1.472-10.144-3.76
		c38.144-1.472,69.568-19.808,77.264-43.872C408.224,234.56,410.688,239.136,410.688,244.544z"/>
	<path style="fill:#F4C534;" d="M191.84,262.88c0,4.576-1.808,8.672-4.912,11.616c-2.944,2.944-7.04,4.912-11.632,4.912h-56.8
		c-6.704,0-12.608-4.096-15.216-9.984c2.944,0.16,5.888,0.16,8.832,0.16c30.944,0,57.776-8.672,71.04-21.44
		C188.4,251.088,191.84,256.656,191.84,262.88z"/>
</g>
<g>
</g>
<g>
</g>
<g>
</g>
<g>
</g>
<g>
</g>
<g>
</g>
<g>
</g>
<g>
</g>
<g>
</g>
<g>
</g>
<g>
</g>
<g>
</g>
<g>
</g>
<g>
</g>
<g>
</g>
</svg>
