<svg height="512pt" viewBox="0 0 512 512" width="512pt" xmlns="http://www.w3.org/2000/svg"><path d="m481.101562 512h-450.203124c-17.066407 0-30.898438-13.832031-30.898438-30.898438v-392.824218h512v392.824218c0 17.066407-13.832031 30.898438-30.898438 30.898438zm0 0" fill="#e7eced" fill-rule="evenodd"/><path d="m176.550781 150.070312h291.3125v317.792969h-291.3125zm0 0" fill="#fff"/><path d="m44.136719 150.070312h158.898437v317.792969h-158.898437zm0 0" fill="#61b872"/><g fill-rule="evenodd"><path d="m512 105.929688h-512v-75.03125c0-17.066407 13.832031-30.898438 30.898438-30.898438h450.203124c17.066407 0 30.898438 13.832031 30.898438 30.898438zm0 0" fill="#28384c"/><path d="m35.308594 35.308594h35.3125v35.3125h-35.3125zm0 0" fill="#dd352e"/><path d="m105.929688 35.308594h35.3125v35.3125h-35.3125zm0 0" fill="#ebba16"/><path d="m176.550781 35.308594h35.3125v35.3125h-35.3125zm0 0" fill="#23a24d"/></g><path d="m256 370.757812h158.898438v52.964844h-158.898438zm0 0" fill="#fc3952"/><path d="m256 194.207031h158.898438v52.964844h-158.898438zm0 0" fill="#75348b"/><path d="m158.898438 344.277344h-70.621094c-4.875 0-8.828125-3.957032-8.828125-8.828125 0-4.875 3.953125-8.828125 8.828125-8.828125h70.621094c4.871093 0 8.824218 3.953125 8.824218 8.828125 0 4.871093-3.953125 8.828125-8.824218 8.828125zm0 0" fill="#fff"/><path d="m158.898438 379.585938h-70.621094c-4.875 0-8.828125-3.953126-8.828125-8.828126 0-4.871093 3.953125-8.828124 8.828125-8.828124h70.621094c4.871093 0 8.824218 3.957031 8.824218 8.828124 0 4.875-3.953125 8.828126-8.824218 8.828126zm0 0" fill="#fff"/><path d="m158.898438 414.898438h-70.621094c-4.875 0-8.828125-3.957032-8.828125-8.828126 0-4.875 3.953125-8.828124 8.828125-8.828124h70.621094c4.871093 0 8.824218 3.953124 8.824218 8.828124 0 4.871094-3.953125 8.828126-8.824218 8.828126zm0 0" fill="#fff"/><path d="m149.449219 223.753906c-2.160157-10.1875-10.625-18.390625-20.875-20.261718-16.816407-3.070313-31.472657 9.765624-31.472657 26.023437 0 7.25 2.941407 13.773437 7.664063 18.546875 1.4375 1.457031 1.246094 3.921875-.46875 5.042969-9.03125 5.921875-15.164063 15.828125-15.886719 27.1875 9.992188 6.929687 22.101563 11.015625 35.175782 11.015625 13.074218 0 25.183593-4.085938 35.167968-11.015625-.714844-11.371094-6.859375-21.265625-15.886718-27.195313-1.714844-1.121094-1.910157-3.585937-.460938-5.042968 5.949219-6.003907 9.066406-14.804688 7.042969-24.300782zm0 0" fill="#fff"/><path d="m414.898438 300.136719h-158.898438c-4.871094 0-8.828125-3.953125-8.828125-8.828125 0-4.871094 3.957031-8.824219 8.828125-8.824219h158.898438c4.871093 0 8.824218 3.953125 8.824218 8.824219 0 4.875-3.953125 8.828125-8.824218 8.828125zm0 0" fill="#366db6"/><path d="m370.757812 335.449219h-114.757812c-4.871094 0-8.828125-3.957031-8.828125-8.828125 0-4.875 3.957031-8.828125 8.828125-8.828125h114.757812c4.875 0 8.828126 3.953125 8.828126 8.828125 0 4.871094-3.953126 8.828125-8.828126 8.828125zm0 0" fill="#ebba16"/></svg>